<svg width="61" height="92" viewBox="0 0 61 92" fill="none" xmlns="http://www.w3.org/2000/svg">
<path d="M35.9375 17.25H7.1875C3.22431 17.25 0 20.4743 0 24.4375V84.8125C0 88.7757 3.22431 92 7.1875 92H35.9375C39.9007 92 43.125 88.7757 43.125 84.8125V24.4375C43.125 20.4743 39.9007 17.25 35.9375 17.25ZM2.875 28.75H40.25V80.5H2.875V28.75ZM7.1875 20.125H35.9375C38.3155 20.125 40.25 22.0595 40.25 24.4375V25.875H2.875V24.4375C2.875 22.0595 4.80952 20.125 7.1875 20.125ZM35.9375 89.125H7.1875C4.80952 89.125 2.875 87.1905 2.875 84.8125V83.375H40.25V84.8125C40.25 87.1905 38.3155 89.125 35.9375 89.125Z" fill="white"/>
<path d="M35.9375 11.5C35.1436 11.5 34.5 12.1436 34.5 12.9375C34.5 13.7314 35.1436 14.375 35.9375 14.375C41.4859 14.375 46 18.8891 46 24.4375C46 25.2314 46.6436 25.875 47.4375 25.875C48.2314 25.875 48.875 25.2314 48.875 24.4375C48.875 17.3037 43.0713 11.5 35.9375 11.5Z" fill="white"/>
<path d="M35.9375 5.75C35.1436 5.75 34.5 6.39364 34.5 7.1875C34.5 7.98136 35.1436 8.625 35.9375 8.625C44.6565 8.625 51.75 15.7185 51.75 24.4375C51.75 25.2314 52.3936 25.875 53.1875 25.875C53.9814 25.875 54.625 25.2314 54.625 24.4375C54.625 14.1331 46.2419 5.75 35.9375 5.75Z" fill="white"/>
<path d="M35.9375 0C35.1436 0 34.5 0.643641 34.5 1.4375C34.5 2.23136 35.1436 2.875 35.9375 2.875C47.8271 2.875 57.5 12.5479 57.5 24.4375C57.5 25.2314 58.1436 25.875 58.9375 25.875C59.7314 25.875 60.375 25.2314 60.375 24.4375C60.375 10.9626 49.4124 0 35.9375 0Z" fill="white"/>
<path d="M18.6875 24.4375H24.4375C25.2314 24.4375 25.875 23.7939 25.875 23C25.875 22.2061 25.2314 21.5625 24.4375 21.5625H18.6875C17.8936 21.5625 17.25 22.2061 17.25 23C17.25 23.7939 17.8936 24.4375 18.6875 24.4375Z" fill="white"/>
<path d="M25.875 84.8125H17.25C16.4561 84.8125 15.8125 85.4561 15.8125 86.25C15.8125 87.0439 16.4561 87.6875 17.25 87.6875H25.875C26.6689 87.6875 27.3125 87.0439 27.3125 86.25C27.3125 85.4561 26.6689 84.8125 25.875 84.8125Z" fill="white"/>
<path d="M14.375 24.4375C14.7541 24.4375 15.1243 24.2848 15.392 24.017C15.6598 23.7493 15.8125 23.3773 15.8125 23C15.8125 22.6209 15.6598 22.2507 15.392 21.983C15.1243 21.7152 14.7541 21.5625 14.375 21.5625C13.9959 21.5625 13.6257 21.7152 13.358 21.983C13.0902 22.2507 12.9375 22.6209 12.9375 23C12.9375 23.3791 13.0902 23.7493 13.358 24.017C13.6257 24.2848 13.9959 24.4375 14.375 24.4375Z" fill="white"/>
<path d="M21.5625 56.0625C25.5257 56.0625 28.75 52.8382 28.75 48.875V47.4375C28.75 43.4743 25.5257 40.25 21.5625 40.25C17.5993 40.25 14.375 43.4743 14.375 47.4375V48.875C14.375 52.8382 17.5993 56.0625 21.5625 56.0625ZM17.25 47.4375C17.25 45.0595 19.1845 43.125 21.5625 43.125C23.9405 43.125 25.875 45.0595 25.875 47.4375V48.875C25.875 51.253 23.9405 53.1875 21.5625 53.1875C19.1845 53.1875 17.25 51.253 17.25 48.875V47.4375Z" fill="white"/>
<path d="M31.5032 58.0668C30.3769 56.8049 28.8934 56.1099 27.3254 56.1099H26.1054C25.6062 56.1099 25.1428 56.3688 24.8811 56.7939C24.0427 58.1565 22.8333 58.9378 21.5625 58.9378C20.2918 58.9378 19.0823 58.1565 18.2439 56.7941C17.9822 56.369 17.5188 56.11 17.0196 56.11H15.7996C12.5686 56.1099 10.0625 59.1755 10.0625 61.8128V64.9264C10.0625 66.3801 11.2452 67.5628 12.6989 67.5628H30.4321C31.8823 67.5628 33.0623 66.3828 33.0623 64.9323V61.8128C33.0625 60.5614 32.4796 59.161 31.5032 58.0668ZM30.1875 64.6878H12.9375V61.8128C12.9375 60.8418 14.0521 58.9849 15.7996 58.9849H16.261C17.6212 60.7923 19.5162 61.8128 21.5625 61.8128C23.6088 61.8128 25.5038 60.7923 26.8638 58.9849H27.3253C29.0727 58.9849 30.1873 60.8418 30.1873 61.8128V64.6878H30.1875Z" fill="white"/>
</svg>
