<svg width="71" height="71" viewBox="0 0 71 71" fill="none" xmlns="http://www.w3.org/2000/svg">
<g fill="white" clip-path="url(#clip0)">
<path d="M53.4258 16.9067L24.2258 34.891C22.5734 35.9111 21.7915 37.9258 22.3238 39.7893L25.4811 50.8831C25.7508 51.8289 26.5926 52.4577 27.561 52.4577C27.615 52.4577 27.6695 52.4557 27.7241 52.4517C28.7594 52.3766 29.5787 51.6054 29.7164 50.5776L30.5374 44.4946C30.648 43.6761 31.0424 42.9148 31.6469 42.3521L55.7432 19.9533C56.4714 19.2781 56.5676 18.1725 55.9676 17.3816C55.3666 16.5901 54.2745 16.3854 53.4258 16.9067ZM29.7202 40.281C28.6374 41.2889 27.932 42.6508 27.734 44.116L27.3358 47.0667L25.044 39.0137C24.8578 38.3614 25.1321 37.656 25.7103 37.299L47.1016 24.1242L29.7202 40.281Z" fill="white" fill-opacity="0.81"/>
<path d="M69.8448 5.18349C68.9325 4.41025 67.6737 4.19739 66.5586 4.62811L2.09117 29.4978C0.814413 29.9902 -0.00652387 31.1924 -6.29743e-06 32.5604C0.00664995 33.9296 0.839652 35.1251 2.12389 35.6063L17.1823 41.2265L23.0563 60.1171C23.3788 61.1556 24.193 61.9625 25.2338 62.2757C26.2742 62.5885 27.3977 62.3648 28.2375 61.678L36.9932 54.5401C37.4137 54.1973 38.0141 54.1804 38.4531 54.4992L54.2455 65.9647C54.8136 66.3777 55.4841 66.5903 56.1624 66.5903C56.5597 66.5903 56.9596 66.5174 57.3434 66.369C58.3815 65.9675 59.1365 65.0777 59.3625 63.989L70.9318 8.33869C71.1747 7.16691 70.7583 5.95797 69.8448 5.18349ZM68.1622 7.76389L56.5931 63.414C56.5512 63.6151 56.4064 63.6987 56.3238 63.7307C56.2406 63.7629 56.0763 63.7986 55.9082 63.6762L40.1153 52.2102C39.4093 51.6976 38.5792 51.4432 37.7506 51.4432C36.8468 51.4432 35.9442 51.7462 35.2064 52.3472L26.4487 59.4867C26.2929 59.6143 26.131 59.5915 26.0487 59.5667C25.9657 59.5417 25.8178 59.471 25.7576 59.2774L19.6775 39.7239C19.5476 39.3061 19.2314 38.9719 18.8215 38.8188L3.11484 32.9567C2.87965 32.8686 2.82959 32.6852 2.8289 32.5466C2.82821 32.4093 2.87646 32.2267 3.10943 32.1369L67.577 7.26731C67.5773 7.26717 67.5777 7.26703 67.5781 7.26689C67.7875 7.18605 67.9424 7.27896 68.0162 7.34136C68.0902 7.40446 68.2081 7.54313 68.1622 7.76389Z" fill="white" fill-opacity="0.81"/>
<path d="M59.2796 34.9651C58.5161 34.7993 57.7631 35.284 57.5974 36.0473L57.3824 37.0375C57.2167 37.8008 57.7012 38.554 58.4646 38.7197C58.5657 38.7416 58.6665 38.7521 58.7661 38.7521C59.4171 38.7521 60.003 38.2998 60.147 37.6376L60.3619 36.6475C60.5275 35.8841 60.0428 35.131 59.2796 34.9651Z" fill="white" fill-opacity="0.81"/>
<path d="M57.8651 41.4798C57.1008 41.314 56.3483 41.7986 56.1828 42.5619L52.9297 57.5456C52.764 58.309 53.2485 59.0621 54.0117 59.2278C54.113 59.2497 54.2138 59.2603 54.3132 59.2603C54.9644 59.2603 55.5502 58.8079 55.6941 58.1457L58.9472 43.162C59.1129 42.3986 58.6284 41.6455 57.8651 41.4798Z" fill="white" fill-opacity="0.81"/>
</g>
<defs>
<clipPath id="clip0">
<rect width="71" height="71" fill="white"/>
</clipPath>
</defs>
</svg>
