<svg width="240" height="240" viewBox="0 0 240 240" fill="none" xmlns="http://www.w3.org/2000/svg">
<circle cx="120" cy="120" r="120" fill="#1B72BA"/>
<path d="M178.144 131.134H120V178.144H178.144V131.134Z" fill="#D9DADB"/>
<path d="M120 131.134H61.8557V178.144H120V131.134Z" fill="#00ABD5"/>
<path d="M178.144 96.4946V131.134H120H61.8557V96.4946H178.144Z" fill="#FFD311"/>
<path d="M178.144 61.856H61.8557V96.4952H178.144V61.856Z" fill="#D9DADB"/>
<path d="M92.7836 131.134H61.8557V178.144H92.7836V131.134Z" fill="#00A0D3"/>
<path d="M120 96.4946H61.8557V131.134H120V96.4946Z" fill="#FDB51E"/>
<path d="M120 61.856H61.8557V96.4952H120V61.856Z" fill="#C0C5C6"/>
<path d="M152.165 131.134H120.035V178.145H152.165V131.134Z" fill="#C0C5C6"/>
<path d="M60 60V180H180V60H60ZM176.289 63.7113V94.6392H63.7113V63.7113H176.289ZM63.7113 129.278V98.3505H176.289V129.278H63.7113ZM63.7113 132.99H118.144V176.289H63.7113V132.99ZM121.856 176.289V132.99H176.289V176.289H121.856Z" fill="black"/>
<path d="M73.6083 148.454H69.897V139.175H79.1752V142.887H73.6083V148.454Z" fill="white"/>
<path d="M73.6083 113.814H69.897V104.536H79.1752V108.247H73.6083V113.814Z" fill="white"/>
<path d="M73.6083 79.1752H69.897V69.897H115.052V73.6083H73.6083V79.1752Z" fill="white"/>
<path d="M131.753 148.454H128.041V139.175H137.32V142.887H131.753V148.454Z" fill="white"/>
</svg>
