<svg width="32" height="32" viewBox="0 0 32 32" fill="none" xmlns="http://www.w3.org/2000/svg">
<path d="M16.0674 9.13965C12.1206 9.13965 8.90954 12.2768 8.90954 16.1328C8.90954 19.9887 12.1206 23.126 16.0674 23.126C20.0142 23.126 23.2253 19.9887 23.2253 16.1328C23.2253 12.2768 20.0142 9.13965 16.0674 9.13965ZM16.0674 22.1396C12.6771 22.1396 9.91907 19.4448 9.91907 16.1328C9.91907 12.8208 12.6771 10.126 16.0674 10.126C19.4577 10.126 22.2157 12.8208 22.2157 16.1328C22.2157 19.4448 19.4577 22.1396 16.0674 22.1396Z" fill="#1C1C1C"/>
<path d="M16 6.58445C16.2826 6.58445 16.5118 6.36085 16.5118 6.08445V0.5C16.5118 0.22365 16.2826 0 16 0C15.7173 0 15.4882 0.22365 15.4882 0.5V6.08445C15.4882 6.36085 15.7173 6.58445 16 6.58445Z" fill="#1C1C1C"/>
<path d="M16 25.415C15.7173 25.415 15.4882 25.6386 15.4882 25.915V31.5C15.4882 31.7763 15.7173 32 16 32C16.2826 32 16.5118 31.7763 16.5118 31.5V25.915C16.5118 25.6386 16.2826 25.415 16 25.415Z" fill="#1C1C1C"/>
<path d="M31.4882 15.2227H25.7717C25.4891 15.2227 25.2599 15.4463 25.2599 15.7227C25.2599 15.999 25.4891 16.2227 25.7717 16.2227H31.4882C31.7709 16.2227 32 15.999 32 15.7227C32 15.4463 31.7709 15.2227 31.4882 15.2227Z" fill="#1C1C1C"/>
<path d="M6.74004 15.7227C6.74004 15.4463 6.51087 15.2227 6.22827 15.2227H0.511776C0.229122 15.2227 0 15.4463 0 15.7227C0 15.999 0.229122 16.2227 0.511776 16.2227H6.22827C6.51087 16.2227 6.74004 15.999 6.74004 15.7227Z" fill="#1C1C1C"/>
<path d="M22.7453 9.93896C22.8763 9.93896 23.0072 9.89016 23.1072 9.79251L27.1497 5.84326C27.3496 5.64796 27.3496 5.33156 27.1497 5.13626C26.9498 4.94091 26.6259 4.94091 26.426 5.13626L22.3835 9.08546C22.1836 9.28076 22.1836 9.59716 22.3835 9.79251C22.4834 9.89016 22.6144 9.93896 22.7453 9.93896Z" fill="#1C1C1C"/>
<path d="M23.1072 22.6016C22.9072 22.4063 22.5834 22.4063 22.3835 22.6016C22.1836 22.7969 22.1836 23.1133 22.3835 23.3086L26.426 27.2573C26.5259 27.355 26.6569 27.4038 26.7878 27.4038C26.9187 27.4038 27.0497 27.355 27.1497 27.2573C27.3496 27.062 27.3496 26.7456 27.1497 26.5503L23.1072 22.6016Z" fill="#1C1C1C"/>
<path d="M8.8928 9.79251C8.9928 9.89016 9.12372 9.93896 9.25468 9.93896C9.38559 9.93896 9.51656 9.89016 9.61651 9.79251C9.81641 9.59716 9.81641 9.28076 9.61651 9.08546L5.57455 5.13626C5.3746 4.94091 5.05075 4.94091 4.85085 5.13626C4.65095 5.33156 4.65095 5.64796 4.85085 5.84326L8.8928 9.79251Z" fill="#1C1C1C"/>
<path d="M9.63918 22.6351C9.63012 22.6247 9.62659 22.6115 9.61645 22.6016C9.41655 22.4063 9.0927 22.4063 8.89275 22.6016L6.8763 24.5716L4.8117 26.4939C4.60703 26.6845 4.5992 27.0009 4.7943 27.2008C4.80417 27.211 4.81758 27.2147 4.82807 27.2238C4.83713 27.2343 4.84066 27.2475 4.85079 27.2573C4.95074 27.355 5.08171 27.4038 5.21262 27.4038C5.34358 27.4038 5.4745 27.355 5.5745 27.2573L7.59095 25.2874L9.65555 23.365C9.86021 23.1744 9.86805 22.8581 9.67295 22.6581C9.66308 22.648 9.64967 22.6442 9.63918 22.6351Z" fill="#1C1C1C"/>
</svg>
