<svg width="240" height="240" viewBox="0 0 240 240" fill="none" xmlns="http://www.w3.org/2000/svg">
<circle cx="120" cy="120" r="120" fill="#1B72BA"/>
<path d="M167.238 80.103H154.471V159.892H167.238V80.103Z" fill="#2F5E88"/>
<path d="M159.578 80.103H72.762V159.892H159.578V80.103Z" fill="#367596"/>
<path d="M167.238 61.915H159.578V85.2098H167.238C169.345 85.2098 171.068 83.4862 171.068 81.3797V65.7452C171.068 63.6386 169.345 61.915 167.238 61.915Z" fill="#88ACB5"/>
<path d="M167.238 92.8699H159.578V116.165H167.238C169.345 116.165 171.068 114.441 171.068 112.334V96.7C171.068 94.5935 169.345 92.8699 167.238 92.8699Z" fill="#88ACB5"/>
<path d="M163.408 96.7V112.334C163.408 114.441 161.684 116.165 159.578 116.165H72.7619C70.6554 116.165 68.9318 114.441 68.9318 112.334V96.7C68.9318 94.5935 70.6554 92.8699 72.7619 92.8699H159.578C161.684 92.8699 163.408 94.5935 163.408 96.7Z" fill="#A7CBCF"/>
<path d="M167.238 123.83H159.578V147.125H167.238C169.345 147.125 171.068 145.401 171.068 143.295V127.66C171.068 125.554 169.345 123.83 167.238 123.83Z" fill="#88ACB5"/>
<path d="M167.238 154.79H159.578V178.085H167.238C169.345 178.085 171.068 176.361 171.068 174.255V158.62C171.068 156.514 169.345 154.79 167.238 154.79Z" fill="#88ACB5"/>
<path d="M163.408 127.66V143.295C163.408 145.401 161.684 147.125 159.578 147.125H72.7619C70.6554 147.125 68.9318 145.401 68.9318 143.295V127.66C68.9318 125.554 70.6554 123.83 72.7619 123.83H159.578C161.684 123.83 163.408 125.554 163.408 127.66Z" fill="#A7CBCF"/>
<path d="M163.408 158.62V174.255C163.408 176.361 161.684 178.085 159.578 178.085H72.7619C70.6554 178.085 68.9318 176.361 68.9318 174.255V158.62C68.9318 156.514 70.6554 154.79 72.7619 154.79H159.578C161.684 154.79 163.408 156.514 163.408 158.62Z" fill="#A7CBCF"/>
<path d="M163.408 65.7452V81.3797C163.408 83.4862 161.684 85.2098 159.578 85.2098H72.7619C70.6554 85.2098 68.9318 83.4862 68.9318 81.3797V65.7452C68.9318 63.6386 70.6554 61.915 72.7619 61.915H159.578C161.684 61.915 163.408 63.6386 163.408 65.7452Z" fill="#A7CBCF"/>
<path d="M120 71.4901H88.0824C87.0247 71.4901 86.1674 70.6327 86.1674 69.575C86.1674 68.5173 87.0247 67.6599 88.0824 67.6599H120C121.058 67.6599 121.915 68.5173 121.915 69.575C121.915 70.6327 121.058 71.4901 120 71.4901Z" fill="#E5FAFC"/>
<path d="M80.4224 71.4901H76.5922C75.5345 71.4901 74.6771 70.6327 74.6771 69.575C74.6771 68.5173 75.5345 67.6599 76.5922 67.6599H80.4224C81.4801 67.6599 82.3374 68.5173 82.3374 69.575C82.3374 70.6327 81.4799 71.4901 80.4224 71.4901Z" fill="#E5FAFC"/>
<path d="M120 102.445H88.0824C87.0247 102.445 86.1674 101.588 86.1674 100.53C86.1674 99.4723 87.0247 98.615 88.0824 98.615H120C121.058 98.615 121.915 99.4723 121.915 100.53C121.915 101.588 121.058 102.445 120 102.445Z" fill="#E5FAFC"/>
<path d="M80.4224 102.445H76.5922C75.5345 102.445 74.6771 101.588 74.6771 100.53C74.6771 99.4723 75.5345 98.615 76.5922 98.615H80.4224C81.4801 98.615 82.3374 99.4723 82.3374 100.53C82.3372 101.588 81.4799 102.445 80.4224 102.445Z" fill="#E5FAFC"/>
<path d="M120 133.405H88.0824C87.0247 133.405 86.1674 132.548 86.1674 131.49C86.1674 130.433 87.0247 129.575 88.0824 129.575H120C121.058 129.575 121.915 130.433 121.915 131.49C121.915 132.548 121.058 133.405 120 133.405Z" fill="#E5FAFC"/>
<path d="M80.4224 133.405H76.5922C75.5345 133.405 74.6771 132.548 74.6771 131.49C74.6771 130.433 75.5345 129.575 76.5922 129.575H80.4224C81.4801 129.575 82.3374 130.433 82.3374 131.49C82.3374 132.548 81.4799 133.405 80.4224 133.405Z" fill="#E5FAFC"/>
<path d="M120 164.365H88.0824C87.0247 164.365 86.1674 163.508 86.1674 162.45C86.1674 161.393 87.0247 160.535 88.0824 160.535H120C121.058 160.535 121.915 161.393 121.915 162.45C121.915 163.508 121.058 164.365 120 164.365Z" fill="#E5FAFC"/>
<path d="M80.4224 164.365H76.5922C75.5345 164.365 74.6771 163.508 74.6771 162.45C74.6771 161.393 75.5345 160.535 76.5922 160.535H80.4224C81.4801 160.535 82.3374 161.393 82.3374 162.45C82.3372 163.508 81.4799 164.365 80.4224 164.365Z" fill="#E5FAFC"/>
<path d="M172.983 81.3797V65.7452C172.983 62.5772 170.406 60 167.238 60H72.762C69.5939 60 67.0167 62.5772 67.0167 65.7452V81.3797C67.0167 83.8765 68.618 86.0048 70.8469 86.7954V91.2844C68.618 92.0749 67.0167 94.2035 67.0167 96.7001V112.335C67.0167 114.831 68.618 116.96 70.8469 117.75V122.244C68.618 123.035 67.0167 125.163 67.0167 127.66V143.294C67.0167 145.791 68.618 147.919 70.8469 148.71V153.204C68.618 153.994 67.0167 156.123 67.0167 158.62V174.254C67.0167 177.422 69.5939 179.999 72.762 179.999H167.238C170.406 179.999 172.983 177.422 172.983 174.254V158.62C172.983 156.124 171.382 153.995 169.153 153.205V148.711C171.382 147.92 172.983 145.792 172.983 143.295V127.661C172.983 125.164 171.382 123.035 169.153 122.245V117.751C171.382 116.96 172.983 114.832 172.983 112.335V96.7008C172.983 94.204 171.382 92.0756 169.153 91.2851V86.7961C171.382 86.0048 172.983 83.8765 172.983 81.3797ZM70.8469 65.7452C70.8469 64.6891 71.7059 63.8302 72.762 63.8302H167.238C168.294 63.8302 169.153 64.6891 169.153 65.7452V81.3797C169.153 82.4358 168.294 83.2948 167.238 83.2948H72.762C71.7059 83.2948 70.8469 82.4358 70.8469 81.3797V65.7452ZM74.677 90.9551V87.1249H165.323V90.9551H74.677ZM74.677 152.875V149.04H165.323V152.875H74.677ZM169.153 174.255C169.153 175.311 168.294 176.17 167.238 176.17H72.762C71.7059 176.17 70.8469 175.311 70.8469 174.255V158.62C70.8469 157.564 71.7059 156.705 72.762 156.705H167.238C168.294 156.705 169.153 157.564 169.153 158.62V174.255ZM169.153 143.295C169.153 144.351 168.294 145.21 167.238 145.21H72.762C71.7059 145.21 70.8469 144.351 70.8469 143.295V127.66C70.8469 126.604 71.7059 125.745 72.762 125.745H167.238C168.294 125.745 169.153 126.604 169.153 127.66V143.295ZM169.153 112.335C169.153 113.391 168.294 114.25 167.238 114.25H159.578C158.52 114.25 157.663 115.107 157.663 116.165C157.663 117.223 158.52 118.08 159.578 118.08H165.323V121.915H74.677V118.08H151.918C152.975 118.08 153.833 117.223 153.833 116.165C153.833 115.107 152.975 114.25 151.918 114.25H72.762C71.7059 114.25 70.8469 113.391 70.8469 112.335V96.7003C70.8469 95.6442 71.7059 94.7852 72.762 94.7852H167.238C168.294 94.7852 169.153 95.6442 169.153 96.7003V112.335Z" fill="black"/>
</svg>
