<svg width="240" height="240" viewBox="0 0 240 240" fill="none" xmlns="http://www.w3.org/2000/svg">
<circle cx="120" cy="120" r="120" fill="#1B72BA"/>
<g clip-path="url(#clip0)">
<path d="M162.523 62.5532H79.5446V177.447H162.523V62.5532Z" fill="#E5E5E5"/>
<path d="M152.31 73.4042H89.7566V86.8083H152.31V73.4042Z" fill="#F4AD47"/>
<path d="M182.255 99.176L170.971 87.8927L121.324 137.54L132.608 148.823L182.255 99.176Z" fill="#E8594F"/>
<path d="M182.296 83.4178L187.259 88.3812C188.859 89.9808 188.859 92.5739 187.259 94.1735L182.257 99.1758L170.973 87.8923L175.975 82.89C177.575 81.2904 180.696 81.8182 182.296 83.4178Z" fill="#61C7D2"/>
<path d="M132.609 148.824L114.97 155.106L121.325 137.54L132.609 148.824Z" fill="#F4AD47"/>
<path d="M154.864 86.8085V73.4041C154.864 71.9941 153.721 70.8508 152.311 70.8508H89.7575C88.3475 70.8508 87.2042 71.9941 87.2042 73.4041V86.8083C87.2042 88.2183 88.3475 89.3615 89.7575 89.3615H152.311C153.721 89.3618 154.864 88.2185 154.864 86.8085ZM149.757 84.2552H92.3106V75.9574H149.757V84.2552H149.757Z" fill="black"/>
<path d="M189.065 86.5758L184.101 81.6124C182.696 80.2076 180.628 79.3687 178.568 79.3687C176.838 79.3687 175.277 79.9779 174.17 81.0841L165.076 90.1779V62.5533C165.076 61.1433 163.933 60 162.523 60H79.5444C78.1344 60 76.9911 61.1433 76.9911 62.5533V177.447C76.9911 178.857 78.1344 180 79.5444 180H162.523C163.933 180 165.076 178.857 165.076 177.447V119.967L189.065 95.9784C191.657 93.3865 191.657 89.1682 189.065 86.5758ZM159.97 174.894H82.0979V65.1063H159.97V95.2847L119.52 135.735C119.252 136.003 119.058 136.316 118.934 136.649C118.931 136.657 118.927 136.663 118.924 136.672L112.569 154.238C112.233 155.167 112.463 156.206 113.16 156.907C113.648 157.397 114.302 157.659 114.97 157.659C115.257 157.659 115.546 157.611 115.826 157.511L133.465 151.229C133.816 151.104 134.127 150.902 134.386 150.65C134.395 150.643 134.405 150.638 134.413 150.629L159.969 125.073V174.893H159.97V174.894ZM122.36 142.186L127.948 147.774L119.212 150.885L122.36 142.186ZM132.609 145.213L124.936 137.54L170.973 91.5028L178.646 99.1758L132.609 145.213ZM185.454 92.3681L182.257 95.5655L174.584 87.8925L177.781 84.6952C177.919 84.5576 178.213 84.4753 178.568 84.4753C179.26 84.4753 180.05 84.7826 180.49 85.223L185.454 90.1863C186.055 90.7882 186.055 91.7667 185.454 92.3681Z" fill="black"/>
<path d="M90.5553 165C90.5553 166.41 91.6986 167.553 93.1086 167.553H148.96C150.37 167.553 151.513 166.41 151.513 165C151.513 163.59 150.37 162.447 148.96 162.447H93.1086C91.6981 162.447 90.5553 163.59 90.5553 165Z" fill="black"/>
<path d="M134.757 106.596H93.1086C91.6986 106.596 90.5553 107.739 90.5553 109.149C90.5553 110.559 91.6986 111.703 93.1086 111.703H134.757C136.167 111.703 137.311 110.559 137.311 109.149C137.311 107.739 136.167 106.596 134.757 106.596Z" fill="black"/>
<path d="M145.289 95.4255H121.034C119.624 95.4255 118.481 96.5688 118.481 97.9788C118.481 99.3888 119.624 100.532 121.034 100.532H145.289C146.699 100.532 147.843 99.3888 147.843 97.9788C147.843 96.5688 146.699 95.4255 145.289 95.4255Z" fill="black"/>
<path d="M93.1086 100.532H110.183C111.593 100.532 112.736 99.3886 112.736 97.9786C112.736 96.5686 111.593 95.4253 110.183 95.4253H93.1086C91.6986 95.4253 90.5553 96.5686 90.5553 97.9786C90.5553 99.3888 91.6981 100.532 93.1086 100.532Z" fill="black"/>
<path d="M123.906 117.766H93.1086C91.6986 117.766 90.5553 118.909 90.5553 120.319C90.5553 121.729 91.6986 122.872 93.1086 122.872H123.906C125.316 122.872 126.46 121.729 126.46 120.319C126.46 118.909 125.316 117.766 123.906 117.766Z" fill="black"/>
<path d="M114.332 128.936H93.1086C91.6986 128.936 90.5553 130.08 90.5553 131.49C90.5553 132.9 91.6986 134.043 93.1086 134.043H114.332C115.742 134.043 116.885 132.9 116.885 131.49C116.885 130.08 115.742 128.936 114.332 128.936Z" fill="black"/>
<path d="M111.14 142.66C111.14 141.25 109.997 140.106 108.587 140.106H93.1086C91.6986 140.106 90.5553 141.25 90.5553 142.66C90.5553 144.07 91.6986 145.213 93.1086 145.213H108.587C109.997 145.213 111.14 144.07 111.14 142.66Z" fill="black"/>
<path d="M93.1086 151.277C91.6986 151.277 90.5553 152.42 90.5553 153.83C90.5553 155.24 91.6986 156.383 93.1086 156.383H103.64C105.05 156.383 106.194 155.24 106.194 153.83C106.194 152.42 105.05 151.277 103.64 151.277H93.1086Z" fill="black"/>
</g>
<defs>
<clipPath id="clip0">
<rect width="120" height="120" fill="white" transform="translate(74 60)"/>
</clipPath>
</defs>
</svg>
