<svg width="240" height="240" viewBox="0 0 240 240" fill="none" xmlns="http://www.w3.org/2000/svg">
<circle cx="120" cy="120" r="120" fill="#1B72BA"/>
<path d="M164.681 92.9149C162.566 92.9149 160.851 94.6296 160.851 96.7446V158.276H123.575V137.596C123.575 135.481 121.86 133.766 119.745 133.766C117.63 133.766 115.915 135.481 115.915 137.596V158.276H77.6171V119.979H94.213C96.328 119.979 98.0427 118.264 98.0427 116.149C98.0427 114.034 96.328 112.319 94.213 112.319H77.6171V76.0638H135.064C137.179 76.0638 138.894 74.3491 138.894 72.2341C138.894 70.1191 137.179 68.4044 135.064 68.4044H73.7872C71.6722 68.4044 69.9575 70.1191 69.9575 72.2341V162.106C69.9575 164.221 71.6722 165.936 73.7872 165.936H164.681C166.796 165.936 168.511 164.221 168.511 162.106V96.7448C168.511 94.6296 166.796 92.9149 164.681 92.9149Z" fill="#9BAAAB"/>
<path d="M165.702 173.085C171.765 173.085 176.681 168.17 176.681 162.106C176.681 156.043 171.765 151.127 165.702 151.127C159.639 151.127 154.723 156.043 154.723 162.106C154.723 168.17 159.639 173.085 165.702 173.085Z" fill="#FFA354"/>
<path d="M74.0425 173.085C80.106 173.085 85.0214 168.17 85.0214 162.106C85.0214 156.043 80.106 151.127 74.0425 151.127C67.9791 151.127 63.0637 156.043 63.0637 162.106C63.0637 168.17 67.9791 173.085 74.0425 173.085Z" fill="#FFA354"/>
<path d="M74.0425 82.9577C80.106 82.9577 85.0214 78.0423 85.0214 71.9788C85.0214 65.9154 80.106 61 74.0425 61C67.9791 61 63.0637 65.9154 63.0637 71.9788C63.0637 78.0423 67.9791 82.9577 74.0425 82.9577Z" fill="#FFA354"/>
<path d="M176.936 67.0252L166.826 56.9149L120.807 102.957L110.684 113.08L105.629 128.245L120.794 123.19L146.069 97.9148L146.066 97.9111L176.936 67.0252Z" fill="#4ACFD9"/>
<path d="M171.881 61.9698L105.641 128.211L105.629 128.245L120.794 123.19L146.069 97.9148L146.066 97.911L176.936 67.0251L171.881 61.9698Z" fill="#0295AA"/>
<path d="M105.629 128.245L120.794 123.19L110.684 113.08L105.629 128.245Z" fill="#FFD1A9"/>
<path d="M170.426 150.109V96.7448C170.426 93.5772 167.848 91 164.681 91C161.513 91 158.936 93.5772 158.936 96.7448V151.13C156.878 152.397 155.231 154.203 154.159 156.362H125.489V137.596C125.489 134.428 122.912 131.851 119.745 131.851C116.577 131.851 114 134.428 114 137.596V156.362H85.586C84.292 153.756 82.1665 151.676 79.5319 150.44V121.894H94.2127C97.3802 121.894 99.9574 119.317 99.9574 116.149C99.9574 112.981 97.3802 110.404 94.2127 110.404H79.5319V83.6456C82.0692 82.4522 84.1467 80.463 85.4527 77.9789H135.064C138.231 77.9789 140.809 75.4017 140.809 72.2341C140.809 69.0665 138.231 66.4893 135.064 66.4893H85.7072C83.6006 62.0097 79.0739 59.0852 74.0424 59.0852C66.9328 59.0852 61.1487 64.8691 61.1487 71.9789C61.1487 76.83 63.8154 81.1767 68.0424 83.3901V150.695C63.8156 152.909 61.1487 157.256 61.1487 162.106C61.1489 169.216 66.9328 175 74.0426 175C78.9448 175 83.4249 172.176 85.5844 167.851H154.161C156.32 172.176 160.8 175 165.702 175C172.811 175 178.596 169.216 178.596 162.106C178.596 156.764 175.302 152.026 170.426 150.109ZM164.681 94.8297C165.737 94.8297 166.596 95.6887 166.596 96.7446V149.245C166.298 149.225 166.001 149.213 165.702 149.213C164.701 149.213 163.72 149.325 162.766 149.548V96.7448C162.766 95.6887 163.625 94.8297 164.681 94.8297ZM115.915 160.192C116.973 160.192 117.83 159.334 117.83 158.277V137.596C117.83 136.54 118.689 135.681 119.745 135.681C120.8 135.681 121.659 136.54 121.659 137.596V158.277C121.659 159.334 122.516 160.192 123.574 160.192H152.953C152.858 160.822 152.808 161.461 152.808 162.106C152.808 162.751 152.858 163.39 152.953 164.021H86.7916C86.8859 163.39 86.9363 162.751 86.9363 162.106C86.9363 161.461 86.8859 160.822 86.7916 160.192H115.915ZM94.2127 114.234C95.2688 114.234 96.1275 115.093 96.1275 116.149C96.1275 117.205 95.2685 118.064 94.2127 118.064H77.617C76.5593 118.064 75.7022 118.921 75.7022 119.979V149.321C75.1533 149.249 74.5995 149.213 74.0426 149.213C73.3104 149.213 72.5859 149.278 71.8723 149.399V84.6857C72.5859 84.8076 73.3102 84.8723 74.0426 84.8723C74.5995 84.8723 75.1533 84.8355 75.7022 84.7643V112.319C75.7022 113.377 76.5593 114.234 77.617 114.234H94.2127V114.234ZM136.979 72.2341C136.979 73.2902 136.12 74.149 135.064 74.149H86.7495C86.8713 73.4353 86.936 72.7111 86.936 71.9786C86.936 71.4218 86.8992 70.8679 86.828 70.319H135.064C136.12 70.3193 136.979 71.178 136.979 72.2341ZM64.9786 71.9789C64.9786 66.9811 69.0445 62.9151 74.0424 62.9151C77.9093 62.9151 81.3532 65.3716 82.612 69.0276C82.9399 69.9799 83.1061 70.9729 83.1061 71.9789C83.1061 73.14 82.8872 74.2743 82.4552 75.3511V75.3515C81.4732 77.7972 79.4827 79.6917 76.9934 80.5486C76.0411 80.8765 75.0481 81.0426 74.0421 81.0426C72.881 81.0426 71.7467 80.8237 70.6699 80.3918C70.6695 80.3915 70.6692 80.3915 70.6688 80.3913C67.2122 79.0031 64.9786 75.7017 64.9786 71.9789ZM74.0426 171.17C69.0448 171.17 64.9788 167.104 64.9788 162.107C64.9788 158.384 67.2124 155.082 70.6692 153.694C70.6697 153.694 70.6702 153.694 70.6704 153.694C71.7471 153.262 72.8815 153.043 74.0426 153.043C75.0485 153.043 76.0416 153.209 76.9938 153.537C79.5682 154.423 81.5892 156.394 82.5392 158.945C82.9158 159.956 83.1068 161.02 83.1068 162.107C83.1068 163.193 82.9158 164.257 82.5392 165.269C82.5392 165.269 82.5389 165.269 82.5389 165.269C81.2241 168.798 77.8099 171.17 74.0426 171.17ZM165.702 171.17C161.934 171.17 158.52 168.799 157.206 165.269C157.206 165.269 157.206 165.269 157.206 165.268C156.829 164.257 156.638 163.193 156.638 162.107C156.638 161.02 156.829 159.956 157.206 158.945C158.015 156.77 159.611 155.004 161.699 153.974C162.951 153.356 164.298 153.043 165.702 153.043C166.485 153.043 167.266 153.144 168.022 153.343C171.993 154.391 174.766 157.995 174.766 162.106C174.766 167.104 170.7 171.17 165.702 171.17Z" fill="black"/>
<path d="M109.33 111.726C109.32 111.735 109.312 111.746 109.302 111.756C109.273 111.787 109.244 111.818 109.217 111.851C109.208 111.862 109.198 111.873 109.189 111.885C109.181 111.894 109.174 111.904 109.167 111.914C109.146 111.941 109.125 111.969 109.105 111.998C109.092 112.018 109.078 112.037 109.066 112.058C109.059 112.068 109.052 112.079 109.046 112.09C109.034 112.11 109.021 112.132 109.009 112.153C108.993 112.183 108.978 112.213 108.963 112.243C108.957 112.254 108.951 112.266 108.946 112.277C108.939 112.291 108.934 112.305 108.928 112.319C108.912 112.356 108.897 112.394 108.884 112.432C108.879 112.447 108.872 112.46 108.867 112.474L106.34 120.057L103.967 127.176L101.131 130.011C100.384 130.759 100.384 131.972 101.131 132.719C101.506 133.093 101.996 133.28 102.486 133.28C102.976 133.28 103.466 133.093 103.84 132.719L106.629 129.93L121.4 125.007C121.415 125.002 121.429 124.995 121.444 124.99C121.481 124.976 121.517 124.963 121.553 124.947C121.568 124.941 121.582 124.935 121.596 124.928C121.608 124.922 121.62 124.916 121.632 124.91C121.661 124.896 121.691 124.881 121.72 124.865C121.741 124.853 121.763 124.841 121.783 124.828C121.795 124.821 121.806 124.814 121.817 124.807C121.837 124.795 121.857 124.782 121.876 124.768C121.904 124.749 121.932 124.729 121.959 124.708C121.969 124.7 121.979 124.693 121.989 124.685C122.001 124.675 122.013 124.665 122.024 124.656C122.055 124.63 122.084 124.603 122.113 124.575C122.124 124.564 122.136 124.555 122.148 124.544L147.423 99.2688C147.457 99.2345 147.489 99.1996 147.52 99.1635L178.291 68.3784C179.038 67.6305 179.038 66.4183 178.29 65.6706L168.18 55.5606C167.821 55.2018 167.334 55 166.826 55C166.318 55 165.831 55.202 165.472 55.5611L119.453 101.603L109.33 111.726ZM108.657 125.217L109.974 121.268L111.521 116.625L117.249 122.353L108.657 125.217ZM166.826 59.6233L174.228 67.0251L144.711 96.5575C144.677 96.5915 144.645 96.6262 144.614 96.662L120.794 120.482L113.392 113.08L122.161 104.311L166.826 59.6233Z" fill="black"/>
</svg>
