<?xml version="1.0" encoding="iso-8859-1"?>
<!-- Generator: Adobe Illustrator 19.0.0, SVG Export Plug-In . SVG Version: 6.00 Build 0)  -->
<svg version="1.1" id="Layer_1" xmlns="http://www.w3.org/2000/svg" xmlns:xlink="http://www.w3.org/1999/xlink" x="0px" y="0px"
	 viewBox="0 0 512 512" style="enable-background:new 0 0 512 512;" xml:space="preserve">
<g>
	<g>
		<g>
			<path d="M232.802,279.13V47.898C232.802,16.453,177.523,0,122.918,0S13.033,16.453,13.033,47.898V279.13
				c0,31.445,55.279,47.898,109.885,47.898S232.802,310.575,232.802,279.13z M210.262,279.13c0,7.584-29.717,25.358-87.344,25.358
				c-57.627,0-87.344-17.774-87.344-25.358v-23.512c21.144,11.682,54.364,17.685,87.344,17.685c32.98,0,66.2-6.004,87.344-17.685
				V279.13z M210.262,225.405c0,7.584-29.717,25.358-87.344,25.358c-57.627,0-87.344-17.774-87.344-25.358v-28.955
				c21.144,11.682,54.364,17.685,87.344,17.685c32.98,0,66.2-6.004,87.344-17.685V225.405z M210.262,166.236
				c0,7.584-29.717,25.358-87.344,25.358c-57.627,0-87.344-17.774-87.344-25.358V137.28c21.144,11.682,54.364,17.685,87.344,17.685
				c32.98,0,66.2-6.004,87.344-17.685V166.236z M210.262,107.067c0,7.584-29.717,25.358-87.344,25.358
				c-57.627,0-87.344-17.774-87.344-25.358v-28.95c21.144,11.68,54.365,17.68,87.344,17.68c32.979,0,66.2-5.999,87.344-17.681
				V107.067z M122.918,73.257c-57.627,0-87.344-17.774-87.344-25.358S65.291,22.54,122.918,22.54
				c57.627,0,87.344,17.774,87.344,25.358S180.545,73.257,122.918,73.257z"/>
			<path d="M487.697,177.274H313.008c-6.225,0-11.27,5.046-11.27,11.27V500.73c0,6.225,5.046,11.27,11.27,11.27h174.689
				c6.225,0,11.27-5.046,11.27-11.27V188.544C498.967,182.32,493.921,177.274,487.697,177.274z M476.427,489.46H324.278V199.815
				h152.148V489.46z"/>
			<path d="M358.089,466.919h84.527c6.225,0,11.27-5.046,11.27-11.27c0-6.225-5.046-11.27-11.27-11.27h-84.527
				c-6.225,0-11.27,5.046-11.27,11.27C346.819,461.873,351.866,466.919,358.089,466.919z"/>
			<path d="M358.089,380.702h84.527c6.225,0,11.27-5.046,11.27-11.27V233.625c0-6.225-5.046-11.27-11.27-11.27h-84.527
				c-6.225,0-11.27,5.046-11.27,11.27v135.806C346.819,375.656,351.866,380.702,358.089,380.702z M369.359,244.895h61.986v22.729
				h-61.986V244.895z M369.359,290.165h61.986v22.729h-61.986V290.165z M369.359,335.433h61.986v22.729h-61.986V335.433z"/>
			<path d="M439.705,400.049h-1.127c-6.225,0-11.27,5.046-11.27,11.27c0,6.225,5.046,11.27,11.27,11.27h1.127
				c6.225,0,11.27-5.046,11.27-11.27C450.975,405.095,445.929,400.049,439.705,400.049z"/>
			<path d="M268.665,402.177c-40.628-2.663-78.284-20.644-106.033-50.629c-4.227-4.568-11.358-4.844-15.927-0.618
				c-4.569,4.227-4.845,11.358-0.618,15.927c31.684,34.239,74.692,54.77,121.102,57.812c0.251,0.017,0.5,0.025,0.748,0.025
				c5.889,0,10.844-4.573,11.235-10.533C279.581,407.95,274.877,402.584,268.665,402.177z"/>
			<path d="M407.517,150.114c2.207,3.019,5.634,4.621,9.109,4.621c2.307,0,4.635-0.706,6.642-2.172
				c5.025-3.673,6.122-10.725,2.448-15.749c-16.495-22.566-38.293-41.289-63.038-54.14c-25.585-13.288-54.444-20.311-83.458-20.311
				c-4.428,0-8.946,0.167-13.43,0.496c-6.208,0.455-10.871,5.857-10.415,12.065c0.455,6.208,5.855,10.858,12.065,10.415
				c3.937-0.289,7.899-0.435,11.78-0.435C329.708,84.902,377.67,109.281,407.517,150.114z"/>
		</g>
	</g>
</g>
<g>
</g>
<g>
</g>
<g>
</g>
<g>
</g>
<g>
</g>
<g>
</g>
<g>
</g>
<g>
</g>
<g>
</g>
<g>
</g>
<g>
</g>
<g>
</g>
<g>
</g>
<g>
</g>
<g>
</g>
</svg>
