<?xml version="1.0" encoding="iso-8859-1"?>
<!-- Generator: Adobe Illustrator 17.1.0, SVG Export Plug-In . SVG Version: 6.00 Build 0)  -->
<!DOCTYPE svg PUBLIC "-//W3C//DTD SVG 1.1//EN" "http://www.w3.org/Graphics/SVG/1.1/DTD/svg11.dtd">
<svg version="1.1" id="Capa_1" xmlns="http://www.w3.org/2000/svg" xmlns:xlink="http://www.w3.org/1999/xlink" x="0px" y="0px"
	 viewBox="0 0 412.929 412.929" style="enable-background:new 0 0 412.929 412.929;" xml:space="preserve">
<g>
	<path d="M363.252,88.967c-2.46-22.665-12.695-44.028-28.822-60.155c-16.188-16.188-36.766-26.128-59.511-28.745
		c-5.486-0.633-10.446,3.305-11.078,8.791c-0.631,5.487,3.305,10.446,8.792,11.078c18.213,2.096,34.692,10.056,47.655,23.019
		c13.102,13.102,21.083,29.759,23.081,48.171c0.556,5.124,4.89,8.922,9.93,8.922c0.36,0,0.725-0.02,1.091-0.06
		C359.879,99.392,363.848,94.458,363.252,88.967z"/>
	<path d="M308.541,54.825c-10.564-10.564-23.995-17.052-38.839-18.76c-5.483-0.635-10.446,3.305-11.078,8.791
		c-0.631,5.487,3.305,10.446,8.792,11.078c10.313,1.187,19.644,5.693,26.983,13.033c7.419,7.419,11.939,16.851,13.069,27.277
		c0.556,5.124,4.89,8.922,9.93,8.922c0.36,0,0.725-0.02,1.091-0.06c5.491-0.596,9.459-5.529,8.863-11.021
		C325.747,79.293,319.066,65.35,308.541,54.825z"/>
	<path d="M177.76,365.939h-20.313c-1.626,0-3,1.374-3,3v13.497c0,1.626,1.374,3,3,3h20.313c1.626,0,3-1.374,3-3v-13.497
		C180.76,367.313,179.386,365.939,177.76,365.939z"/>
	<path d="M265.59,73.722H69.618c-11.028,0-20,8.972-20,20v299.207c0,11.028,8.972,20,20,20H265.59c11.028,0,20-8.972,20-20V93.722
		C285.59,82.694,276.618,73.722,265.59,73.722z M190.76,382.436c0,7.168-5.832,13-13,13h-20.313c-7.168,0-13-5.832-13-13v-13.497
		c0-7.168,5.832-13,13-13h20.313c7.168,0,13,5.832,13,13V382.436z M271.075,329.703c0,5.5-4.5,10-10,10H74.133c-5.5,0-10-4.5-10-10
		V105.165c0-5.5,4.5-10,10-10h186.942c5.5,0,10,4.5,10,10V329.703z"/>
	<path d="M167.605,226.966c16.525,0,29.922-15.681,29.922-35.023c0-26.823-13.397-35.023-29.922-35.023
		c-16.526,0-29.924,8.201-29.924,35.023C137.681,211.285,151.079,226.966,167.605,226.966z"/>
	<path d="M218.583,244.508c-0.689-1.557-1.903-2.847-3.413-3.633l-23.429-12.196c-0.516-0.269-1.142-0.216-1.607,0.135
		c-6.625,5.012-14.417,7.66-22.529,7.66c-8.114,0-15.906-2.648-22.531-7.66c-0.467-0.352-1.092-0.404-1.609-0.135l-23.427,12.196
		c-1.511,0.785-2.722,2.075-3.413,3.633l-15.096,34.007c-1.042,2.344-0.828,5.026,0.57,7.176c1.398,2.15,3.763,3.434,6.328,3.434
		H226.78c2.566,0,4.93-1.284,6.329-3.434c1.397-2.15,1.612-4.833,0.57-7.176L218.583,244.508z"/>
</g>
<g>
</g>
<g>
</g>
<g>
</g>
<g>
</g>
<g>
</g>
<g>
</g>
<g>
</g>
<g>
</g>
<g>
</g>
<g>
</g>
<g>
</g>
<g>
</g>
<g>
</g>
<g>
</g>
<g>
</g>
</svg>
