<svg width="30" height="30" viewBox="0 0 30 30" fill="none" xmlns="http://www.w3.org/2000/svg">
<path d="M25.8617 3.77068C24.3835 2.16561 22.6309 0.918434 20.6528 0.0637639C20.3663 -0.0594801 20.0353 -0.00120695 19.8081 0.2138C19.5801 0.428807 19.4994 0.759244 19.6008 1.05708C21.3933 6.29138 19.9656 12.1142 15.9654 15.8912C11.9637 19.6685 6.12669 20.7042 1.09508 18.5285C0.811038 18.4057 0.477598 18.4635 0.250452 18.6785C0.0224245 18.8935 -0.0582891 19.224 0.0431546 19.5218C0.748188 21.5799 1.85481 23.4368 3.33302 25.041C6.13838 28.087 9.94803 29.8451 14.0596 29.9904C14.2439 29.9971 14.4274 30 14.6109 30C18.5205 30 22.228 28.524 25.1017 25.8106C28.1113 22.9697 29.8469 19.113 29.9904 14.9502C30.1336 10.7873 28.6677 6.81718 25.8617 3.77068ZM28.4189 14.8946C28.2899 18.6321 26.7308 22.0952 24.0293 24.6458C21.3278 27.1962 17.8053 28.5363 14.1145 28.3987C10.4222 28.2686 7.00197 26.6903 4.48308 23.9548C3.55465 22.9476 2.78985 21.8295 2.19773 20.6176C7.37356 22.1519 13.0317 20.838 17.0374 17.056C21.0438 13.2736 22.7332 7.64974 21.5821 2.31587C22.7354 2.9984 23.7838 3.84905 24.7114 4.85711C27.2309 7.59214 28.5473 11.1573 28.4189 14.8946Z" fill="#1C1C1C"/>
</svg>
