<svg width="76" height="76" viewBox="0 0 76 76" fill="none" xmlns="http://www.w3.org/2000/svg">
<g clip-path="url(#clip0)">
<path d="M54.0537 0.25H21.6962C9.90713 0.25 0.25 9.90713 0.25 21.6962V54.0537C0.25 65.8429 9.90713 75.5 21.6962 75.5H54.0537C65.8429 75.5 75.5 65.8429 75.5 54.0537V21.6962C75.5 9.90713 65.8429 0.25 54.0537 0.25ZM72.9916 54.0537C72.9916 64.4634 64.4632 72.9916 54.0537 72.9916H21.6962C11.2866 72.9916 2.75838 64.4632 2.75838 54.0537V21.6962C2.75838 11.2866 11.2868 2.75838 21.6962 2.75838H54.0537C64.4634 2.75838 72.9916 11.2868 72.9916 21.6962V54.0537Z" fill="white" fill-opacity="0.85"/>
<path d="M54.0537 7.7749H21.6962C14.0459 7.7749 7.77499 14.0458 7.77499 21.6962V54.0536C7.77499 61.704 14.0459 67.9749 21.6962 67.9749H54.0537C61.7041 67.9749 67.975 61.704 67.975 54.0536V21.6962C67.975 14.0458 61.7041 7.7749 54.0537 7.7749ZM65.4666 54.0536C65.4666 60.3245 60.3245 65.4665 54.0537 65.4665H21.6962C15.4254 65.4665 10.2834 60.3244 10.2834 54.0536V21.6962C10.2834 15.4253 15.4255 10.2833 21.6962 10.2833H54.0537C60.3246 10.2833 65.4666 15.4254 65.4666 21.6962V54.0536Z" fill="white" fill-opacity="0.85"/>
<path d="M37.875 17.8086C26.8384 17.8086 17.8084 26.8386 17.8084 37.8752C17.8084 48.9118 26.8384 57.9418 37.875 57.9418C48.9116 57.9418 57.9416 48.9118 57.9416 37.8752C57.9416 26.8386 48.9116 17.8086 37.875 17.8086ZM37.875 55.4336C28.2179 55.4336 20.3166 47.5323 20.3166 37.8752C20.3166 28.2181 28.2179 20.3168 37.875 20.3168C47.5321 20.3168 55.4334 28.2181 55.4334 37.8752C55.4334 47.5323 47.5321 55.4336 37.875 55.4336Z" fill="white" fill-opacity="0.85"/>
<path d="M37.875 24.0791C30.2246 24.0791 24.0791 30.2245 24.0791 37.875C24.0791 45.5254 30.2245 51.6709 37.875 51.6709C45.5255 51.6709 51.6709 45.5255 51.6709 37.875C51.6709 30.2245 45.5254 24.0791 37.875 24.0791ZM37.875 49.1625C31.6041 49.1625 26.5875 44.1459 26.5875 37.875C26.5875 31.6041 31.6041 26.5875 37.875 26.5875C44.1459 26.5875 49.1625 31.6041 49.1625 37.875C49.1625 44.1459 44.1459 49.1625 37.875 49.1625Z" fill="white" fill-opacity="0.85"/>
<path d="M57.9416 14.0459C55.8095 14.0459 54.1791 15.6763 54.1791 17.8084C54.1791 19.9405 55.8095 21.5709 57.9416 21.5709C60.0738 21.5709 61.7041 19.9405 61.7041 17.8084C61.7041 15.6763 60.0738 14.0459 57.9416 14.0459Z" fill="white" fill-opacity="0.85"/>
</g>
<defs>
<clipPath id="clip0">
<rect x="0.25" y="0.25" width="75.25" height="75.25" fill="white"/>
</clipPath>
</defs>
</svg>
