<svg width="74" height="74" viewBox="0 0 74 74" fill="none" xmlns="http://www.w3.org/2000/svg">
<path d="M71.78 43.4133C72.15 41.3166 72.3967 39.22 72.3967 37.1233C72.3967 17.76 56.61 1.97329 37.2467 1.97329C35.15 1.97329 33.0534 2.22 30.9567 2.59C27.8733 0.863285 24.42 0 20.8433 0C9.37328 0 0 9.37328 0 20.8433C0 24.2966 0.863285 27.8733 2.59 30.9566C2.22 33.0533 1.97329 35.1499 1.97329 37.2466C1.97329 56.6099 17.76 72.3966 37.1233 72.3966C39.22 72.3966 41.3166 72.1499 43.4133 71.7799C46.1266 73.2599 49.4566 73.9999 53.5266 73.9999C64.9967 74 74 64.9967 74 53.5267C74 49.4567 73.26 46.1267 71.78 43.4133ZM53.5267 71.5333C49.7034 71.5333 46.7434 70.7933 44.2767 69.4366L43.9067 69.1899L43.4134 69.3131C41.3167 69.6831 39.2201 69.9299 37.1234 69.9299C19.1167 69.9299 4.44014 55.2531 4.44014 37.2466C4.44014 35.1499 4.68686 33.0533 5.05686 30.9566L5.18014 30.4633L4.93343 30.0933C3.33014 27.2566 2.46671 24.05 2.46671 20.8433C2.46671 10.73 10.73 2.46657 20.8434 2.46657C24.0501 2.46657 27.2567 3.32986 30.0934 4.93329L30.4634 5.18L30.9567 5.05671C33.0534 4.68671 35.15 4.44 37.2467 4.44C55.2534 4.44 69.93 19.1167 69.93 37.1233C69.93 39.22 69.6833 41.3166 69.3133 43.4133L69.19 43.9066L69.4367 44.2766C70.7934 46.7433 71.5334 49.7033 71.5334 53.5266C71.5333 63.64 63.64 71.5333 53.5267 71.5333Z" fill="white" fill-opacity="0.81"/>
<path d="M40.2067 31.0801C30.9567 29.2301 29.6 26.8868 29.4767 26.2701C29.23 25.4068 29.8467 24.6668 30.4634 24.1734C32.0667 22.8167 35.8901 21.7067 39.2201 22.3234C40.4534 22.5701 42.1801 23.1867 43.0434 24.6667C45.1401 28.7367 47.3601 31.9434 51.9234 30.8334C53.4034 30.4634 54.5134 29.4767 55.2534 27.9967C56.1167 26.0234 56.1167 23.3099 55.0067 21.2134C53.7734 18.8701 48.47 12.8267 38.11 12.8267C28.2433 12.8267 16.8967 16.4034 16.8967 26.5167C16.8967 34.5334 23.9267 40.2067 36.1367 41.9334C42.3034 42.7967 44.2767 44.7701 44.8934 45.8801C45.2634 46.6201 45.2634 47.3601 45.0167 48.1001C44.03 50.4434 40.7 52.6634 35.52 52.1701C29.6 51.5534 27.6267 46.2501 27.2567 45.1401C26.27 42.0568 22.94 41.5634 21.2134 41.6868C20.3501 41.8101 18.3767 42.4268 17.1434 44.2768C16.4034 45.3868 15.6634 47.4835 16.7734 50.6901C18.1301 54.8834 22.6934 61.7901 37.8634 61.7901C50.5667 61.7901 58.2134 53.7734 58.3367 46.3734C58.3367 38.2334 52.7867 33.5468 40.2067 31.0801ZM37.74 59.3234C27.6267 59.3234 20.9667 55.9934 18.9933 49.9501C18.3766 48.1001 18.3766 46.6201 19.1166 45.6334C19.8566 44.6467 20.9666 44.1534 21.4599 44.1534C21.4599 44.1534 21.5831 44.1534 21.8299 44.1534C22.5699 44.1534 24.4199 44.2767 24.6666 45.7567C25.1599 47.1134 27.6266 53.7734 35.0266 54.5134C41.5633 55.1301 45.7566 52.0467 47.1133 48.8401C47.73 47.3601 47.6066 45.7568 46.8666 44.4001C45.8799 42.5501 43.1666 40.2068 36.3833 39.2201C29.97 38.2334 19.24 35.3968 19.24 26.2701C19.24 18.0068 29.3533 15.0468 37.9867 15.0468C47.1134 15.0468 51.6767 20.1035 52.6634 22.0768C53.2801 23.4335 53.4034 25.4068 52.7867 26.7635C52.4167 27.6268 51.8 28.1202 51.06 28.2435C48.84 28.7368 47.4833 28.2435 44.8933 23.3102C43.9066 21.4602 41.9333 20.2269 39.3433 19.7335C35.52 19.1168 30.8333 20.1035 28.49 22.2002C27.01 23.5569 26.3933 25.1602 26.7633 26.7635C27.6266 29.7235 31.6966 31.8202 39.4666 33.3002C53.6499 36.137 55.6233 41.317 55.6233 46.127C55.6233 52.5401 48.9633 59.3234 37.74 59.3234Z" fill="white" fill-opacity="0.81"/>
</svg>
