<svg width="76" height="76" viewBox="0 0 76 76" fill="none" xmlns="http://www.w3.org/2000/svg">
<path d="M45.2373 0H30.7613C15.5992 0 3.2637 12.3326 3.2637 27.4918V40.5321C3.2637 51.8211 10.2007 61.9668 20.6315 66.0989V74.5527C20.6315 75.1258 20.9687 75.644 21.4926 75.8755C21.6808 75.9595 21.8805 76 22.0788 76C22.4305 76 22.7793 75.8712 23.05 75.6251L31.4429 68.0238H45.2373C60.3994 68.0238 72.7349 55.6913 72.7349 40.5321V27.4918C72.7349 12.3326 60.3994 0 45.2373 0ZM69.8402 40.5321C69.8402 54.0949 58.8044 65.1292 45.2373 65.1292H30.8843C30.5253 65.1292 30.1794 65.2624 29.9131 65.5041L23.5261 71.289V65.0959C23.5261 64.4823 23.1397 63.9352 22.5608 63.7326C12.7509 60.2633 6.15833 50.9397 6.15833 40.5321V27.4918C6.15833 13.929 17.1956 2.89463 30.7613 2.89463H45.2373C58.8044 2.89463 69.8402 13.929 69.8402 27.4918V40.5321Z" fill="#E5E5E5"/>
<path d="M57.127 44.133L48.2318 38.3553C47.2592 37.7228 46.1014 37.5086 44.9681 37.7431C43.8334 37.9819 42.8579 38.652 42.2254 39.629L41.8072 40.2716C37.9573 38.9994 33.7123 37.374 31.1708 30.0173L32.223 29.1026C34.0293 27.5323 34.2189 24.7853 32.6486 22.9761L25.6899 14.971C25.1659 14.3675 24.2512 14.3053 23.6477 14.8278L19.2782 18.6255C15.4458 21.9572 17.2361 26.8853 17.8251 28.5049C17.8512 28.5773 17.883 28.6467 17.9207 28.7147C18.0726 28.9868 21.7011 35.4621 27.5612 41.4309C33.4446 47.4242 44.0664 52.9587 44.3921 53.1194C45.6049 53.9067 46.9697 54.2845 48.3201 54.2845C50.6908 54.2845 53.0152 53.1223 54.4017 50.9918L57.554 46.1375C57.9882 45.4645 57.7971 44.5686 57.127 44.133ZM51.9731 49.4143C50.6691 51.4231 47.9742 51.9934 45.8466 50.6213C45.741 50.5663 35.1886 45.0709 29.6266 39.4046C24.4278 34.1089 20.976 28.2256 20.5056 27.4049C19.3593 24.1904 19.5619 22.2149 21.1771 20.811L24.4553 17.9626L30.4646 24.875C30.9986 25.4887 30.9364 26.386 30.3256 26.9172L28.5498 28.46C28.117 28.8363 27.9462 29.4312 28.1156 29.9783C31.1433 39.8171 37.031 41.7493 41.3296 43.1604L41.9562 43.3674C42.5829 43.5787 43.269 43.337 43.6279 42.7841L44.654 41.2036C44.8653 40.8765 45.1895 40.6551 45.5658 40.5755C45.9436 40.4945 46.3286 40.5697 46.6557 40.7825L54.338 45.7714L51.9731 49.4143Z" fill="#E5E5E5"/>
<path d="M41.3035 23.5147C40.5335 23.2932 39.7332 23.7405 39.5146 24.5104C39.2961 25.279 39.7419 26.0793 40.5104 26.2979C42.6669 26.9115 44.3848 28.6324 44.9927 30.7903C45.1722 31.4272 45.7526 31.8454 46.385 31.8454C46.5153 31.8454 46.647 31.8281 46.7787 31.7919C47.5472 31.5748 47.9959 30.7759 47.7788 30.0059C46.9003 26.8884 44.4181 24.4004 41.3035 23.5147Z" fill="#E5E5E5"/>
<path d="M52.3176 32.1579C52.4478 32.1579 52.5795 32.1405 52.7112 32.1043C53.4812 31.8872 53.9284 31.0869 53.7113 30.3184C52.0035 24.2642 47.1854 19.436 41.1356 17.7137C40.3671 17.4922 39.5667 17.9424 39.3482 18.7109C39.1296 19.4794 39.5754 20.2798 40.3439 20.4983C45.4341 21.9456 49.4881 26.0111 50.9253 31.1043C51.1062 31.7411 51.6851 32.1579 52.3176 32.1579Z" fill="#E5E5E5"/>
<path d="M40.5118 10.9737C39.7418 10.7522 38.9415 11.1994 38.7229 11.9709C38.5044 12.7394 38.9502 13.5398 39.7187 13.7583C48.3432 16.2115 55.2137 23.0978 57.648 31.7282C57.8275 32.365 58.4079 32.7833 59.0404 32.7833C59.1706 32.7833 59.3023 32.7659 59.434 32.7297C60.2025 32.5126 60.6512 31.7123 60.4341 30.9437C57.7291 21.3524 50.0959 13.7019 40.5118 10.9737Z" fill="#E5E5E5"/>
</svg>
