<svg width="68" height="68" viewBox="0 0 68 68" fill="none" xmlns="http://www.w3.org/2000/svg">
<path d="M34 0C15.2516 0 0 15.2516 0 34C0 40.3959 1.77715 46.6048 5.14838 51.9965C3.80538 56.7015 1.37962 65.6017 1.35346 65.6945C1.22792 66.1548 1.36262 66.6465 1.70654 66.9774C2.05046 67.3082 2.54738 67.4259 2.99985 67.2873L16.4769 63.1419C21.7561 66.3222 27.8015 68 34 68C52.7484 68 68 52.7484 68 34C68 15.2516 52.7484 0 34 0ZM34 65.3846C28.0905 65.3846 22.3341 63.733 17.3518 60.6102C17.1412 60.4782 16.8993 60.4115 16.6574 60.4115C16.5279 60.4115 16.3985 60.4311 16.2729 60.469L4.505 64.0913C5.36938 60.9358 6.92292 55.2918 7.82392 52.1521C7.92854 51.7885 7.86969 51.3962 7.66438 51.0785C4.36115 45.9955 2.61538 40.0899 2.61538 34C2.61538 16.6953 16.6953 2.61538 34 2.61538C51.3047 2.61538 65.3846 16.6953 65.3846 34C65.3846 51.3047 51.3047 65.3846 34 65.3846Z" fill="white"/>
<path d="M56.2111 42.0106C53.7971 40.6703 51.7415 39.326 50.2415 38.3452C49.096 37.5972 48.2682 37.0571 47.6615 36.7524C45.9654 35.9063 44.6799 36.504 44.1908 36.9983C44.1294 37.0597 44.0745 37.1264 44.0274 37.197C42.2659 39.8399 39.9657 42.3676 39.2922 42.5036C38.5142 42.382 34.8722 40.312 31.2525 37.2977C27.557 34.2181 25.2319 31.2693 24.8906 29.2606C27.2615 26.8205 28.1154 25.2853 28.1154 23.5382C28.1154 21.7375 23.9151 14.2196 23.1553 13.4598C22.3929 12.6987 20.6759 12.5797 18.0514 13.1028C17.799 13.1538 17.5662 13.278 17.3832 13.4598C17.0654 13.7776 9.62984 21.3583 13.1632 30.5461C17.0418 40.6297 26.9973 52.3506 39.6898 54.2546C41.1322 54.4703 42.4843 54.5776 43.7502 54.5776C51.2171 54.5776 55.624 50.8206 56.865 43.368C56.9578 42.8227 56.695 42.2787 56.2111 42.0106ZM40.0782 51.668C26.656 49.6554 18.2018 36.3575 15.6047 29.6072C13.0285 22.9118 17.7794 16.9422 18.972 15.5926C19.9423 15.4279 20.9636 15.3586 21.3899 15.4253C22.2805 16.6636 25.364 22.4894 25.5 23.5382C25.5 24.2247 25.2764 25.1806 22.6139 27.8444C22.3681 28.089 22.2308 28.4211 22.2308 28.769C22.2308 35.616 36.6729 45.1151 39.2308 45.1151C41.4552 45.1151 44.3556 41.3764 46.0072 38.9402C46.1027 38.9441 46.2635 38.9768 46.4924 39.0919C46.9632 39.3286 47.7792 39.8608 48.8109 40.5356C50.1735 41.4261 51.9834 42.6083 54.1202 43.8336C53.1498 48.502 50.4377 53.2241 40.0782 51.668Z" fill="white"/>
</svg>
